<svg width="50" height="50" viewBox="0 0 50 50" fill="none" xmlns="http://www.w3.org/2000/svg">
<g clip-path="url(#clip0_316_34)">
<path fill-rule="evenodd" clip-rule="evenodd" d="M7.22222 0C18.9815 0 30.7407 0 42.5 0C43.0133 0.08152 43.5319 0.174113 44.0556 0.277778C44.1675 0.356878 44.2971 0.393915 44.4444 0.388889C46.9371 1.25197 48.6408 2.91863 49.5556 5.38889C49.5571 5.57869 49.6127 5.74533 49.7222 5.88889C49.8156 6.33978 49.9082 6.78422 50 7.22222C50 15.5 50 23.7778 50 32.0556C49.8753 32.6433 49.542 33.0693 49 33.3333C48.9449 33.3238 48.9079 33.3423 48.8889 33.3889C47.9213 33.5038 47.3009 33.0964 47.0278 32.1667C47.0185 23.8611 46.9907 15.5648 46.9444 7.27778C46.9015 6.91728 46.8182 6.56544 46.6944 6.22222C46.6167 5.97406 46.4964 5.75183 46.3333 5.55556C46.1594 5.14091 45.9002 4.78906 45.5556 4.5C45.5371 4.44444 45.5 4.40741 45.4444 4.38889C45.1252 4.08851 44.7733 3.82925 44.3889 3.61111C43.8004 3.28804 43.1708 3.10286 42.5 3.05556C30.7686 2.99076 19.0278 2.98151 7.27778 3.02778C7.17322 3.03878 7.08067 3.06656 7 3.11111C6.0135 3.28012 5.18018 3.72457 4.5 4.44444C3.67319 5.22757 3.18245 6.1905 3.02778 7.33333C2.99074 19.0556 2.99074 30.7778 3.02778 42.5C3.10222 43.1685 3.29666 43.7982 3.61111 44.3889C3.82925 44.7733 4.08851 45.1252 4.38889 45.4444C4.89716 46.0043 5.50827 46.4117 6.22222 46.6667C6.555 46.8077 6.90683 46.9003 7.27778 46.9444C15.6401 46.9818 24.0104 47.0188 32.3889 47.0556C32.7742 47.1829 33.0891 47.4052 33.3333 47.7222C33.3333 47.7407 33.3333 47.7593 33.3333 47.7778C33.3856 47.8639 33.4226 47.9564 33.4444 48.0556C33.4578 48.3737 33.4393 48.6886 33.3889 49C33.3926 49.0811 33.3741 49.1551 33.3333 49.2222C33.0768 49.608 32.725 49.8673 32.2778 50C23.9074 50 15.5371 50 7.16667 50C7.12728 49.9498 7.07172 49.9313 7 49.9444C6.77272 49.8669 6.532 49.8299 6.27778 49.8333C6.15794 49.7829 6.02833 49.7459 5.88889 49.7222C5.74533 49.6127 5.57869 49.5571 5.38889 49.5556C2.91537 48.6376 1.2487 46.9339 0.388889 44.4444C0.26725 43.9401 0.156139 43.4401 0.0555556 42.9444C0.0687392 42.8727 0.0502207 42.8172 0 42.7778C0 30.9074 0 19.0371 0 7.16667C0.0997367 6.6925 0.201588 6.211 0.305556 5.72222C1.48278 2.44254 3.78833 0.535134 7.22222 0Z" fill="#100100"/>
<path fill-rule="evenodd" clip-rule="evenodd" d="M15.7226 11.9444C15.983 11.9742 16.2422 12.0112 16.5004 12.0555C17.6824 12.4597 18.4787 13.256 18.8893 14.4444C18.8843 14.5917 18.9213 14.7213 19.0004 14.8332C19.0449 14.9189 19.0634 15.0115 19.056 15.111C19.1278 16.114 18.85 17.0029 18.2226 17.7777C18.093 17.9259 17.9634 18.074 17.8337 18.2221C17.4517 18.4594 17.0628 18.6816 16.6671 18.8888C16.1409 19.0323 15.6039 19.0879 15.056 19.0555C14.9496 19.0712 14.857 19.0527 14.7782 18.9999C14.6662 18.9208 14.5366 18.8838 14.3893 18.8888C13.2342 18.456 12.4565 17.6597 12.056 16.4999C12.0117 16.2417 11.9747 15.9825 11.9449 15.7221C11.9244 15.2899 11.9614 14.864 12.056 14.4444C12.4634 13.2592 13.2597 12.4629 14.4449 12.0555C14.8645 11.9609 15.2904 11.9239 15.7226 11.9444Z" fill="#100100"/>
<path fill-rule="evenodd" clip-rule="evenodd" d="M35.0558 19.5C35.0471 19.6787 35.1027 19.8268 35.2224 19.9444C35.3093 20.3351 35.439 20.7054 35.6113 21.0556C35.6113 21.0741 35.6113 21.0926 35.6113 21.1111C35.6854 21.3518 35.7595 21.5926 35.8335 21.8333C35.8351 22.0231 35.8906 22.1898 36.0002 22.3333C36.3825 23.4709 36.7343 24.619 37.0558 25.7778C37.0498 25.8301 37.0313 25.8764 37.0002 25.9167C36.5323 26.1499 36.1063 26.437 35.7224 26.7778C35.1691 27.2381 34.7433 27.7937 34.4446 28.4444C34.2393 28.7638 34.1096 29.1156 34.0558 29.5C33.9766 29.6119 33.9396 29.7416 33.9446 29.8889C33.894 31.1658 33.8754 32.4436 33.8891 33.7222C32.7128 33.7038 31.5461 33.7224 30.3891 33.7778C30.0661 33.7891 29.7513 33.8447 29.4446 33.9444C29.2756 33.9574 29.1275 34.0129 29.0002 34.1111C28.0668 34.4572 27.3075 35.0313 26.7224 35.8333C20.176 35.8518 13.639 35.8333 7.11133 35.7778C7.18539 35.7407 7.24095 35.6852 7.278 35.6111C11.2039 31.6852 15.1114 27.7407 19.0002 23.7778C19.3906 24.3543 19.761 24.9469 20.1113 25.5556C20.5751 26.3353 21.038 27.1131 21.5002 27.8889C21.6653 28.1842 21.832 28.4806 22.0002 28.7778C22.0281 28.8345 22.0651 28.8438 22.1113 28.8056C23.2358 27.3577 24.3469 25.904 25.4446 24.4444C26.9153 22.6149 28.3598 20.763 29.778 18.8889C30.9619 17.3899 32.147 15.8899 33.3335 14.3889C33.9304 16.0868 34.5044 17.7906 35.0558 19.5Z" fill="#100100"/>
<path fill-rule="evenodd" clip-rule="evenodd" d="M39.723 28.5556C39.7971 28.5741 39.8712 28.5926 39.9453 28.6111C40.1265 28.7178 40.2932 28.8474 40.4453 29C40.5334 29.1206 40.6075 29.2502 40.6675 29.3889C40.7035 32.1378 40.7405 34.8785 40.7786 37.6111C43.3988 37.6666 46.0284 37.6851 48.6675 37.6667C49.7432 37.9663 50.1229 38.6515 49.8064 39.7222C49.5461 40.2687 49.1109 40.565 48.5008 40.6111C45.9268 40.6111 43.3527 40.6111 40.7786 40.6111C40.7786 43.2222 40.7786 45.8333 40.7786 48.4444C40.6704 49.1546 40.263 49.5898 39.5564 49.75C38.642 49.8452 38.0679 49.4471 37.8342 48.5556C37.8342 45.9074 37.8342 43.2593 37.8342 40.6111C35.223 40.6111 32.6119 40.6111 30.0008 40.6111C29.5782 40.5572 29.2264 40.3721 28.9453 40.0556C28.9493 39.9707 28.9123 39.9152 28.8342 39.8889C28.7673 39.6883 28.7118 39.4846 28.6675 39.2778C28.6189 38.5878 28.8967 38.0785 29.5008 37.75C29.6453 37.6989 29.7935 37.6618 29.9453 37.6389C32.5563 37.6111 35.1674 37.6018 37.7786 37.6111C37.8249 34.9908 37.8527 32.3612 37.8619 29.7222C37.9162 29.5978 37.944 29.4682 37.9453 29.3333C38.1102 28.9915 38.3695 28.7508 38.723 28.6111C39.0544 28.5663 39.3877 28.5478 39.723 28.5556Z" fill="#100100"/>
</g>
<defs>
<clipPath id="clip0_316_34">
<rect width="50" height="50" fill="white"/>
</clipPath>
</defs>
</svg>
