<svg width="70" height="70" viewBox="0 0 70 70" fill="none" xmlns="http://www.w3.org/2000/svg">
<g clip-path="url(#clip0_65_85)">
<path fill-rule="evenodd" clip-rule="evenodd" d="M29.821 42.219L50.548 38.6498L59.2685 59.0387L48.4842 58.9155L39.6227 66.1046L29.821 42.219Z" fill="#5B5B5B"/>
<path fill-rule="evenodd" clip-rule="evenodd" d="M41.7426 39.9567L19.5211 40.5452L10 63.1922L20.7843 63.0677L29.6458 70.2568L41.7426 39.9567Z" fill="#8C8C8C"/>
<path fill-rule="evenodd" clip-rule="evenodd" d="M35.0736 0.261373C36.3532 0.20663 37.3619 0.652784 38.3787 1.30012C39.6706 2.11852 41.1241 3.73617 42.9183 4.7626C45.4433 6.20507 50.1183 4.21517 52.5133 7.77208C53.9106 9.84683 53.9763 11.4727 54.0803 13.0794C54.1925 14.8134 54.4963 16.4078 56.27 18.7548C59.2083 22.6388 59.8201 25.2241 58.3064 27.9188C57.2745 29.7554 55.1026 30.7764 54.599 31.9396C53.5301 34.4154 54.7126 36.2807 53.2482 39.1671C52.2314 41.1679 50.663 42.4872 48.5732 43.1605C46.8105 43.7271 45.0423 42.9074 43.6326 43.4999C41.1528 44.5414 39.3244 46.9624 37.3523 47.5742C36.59 47.8109 35.8318 47.9273 35.0736 47.9218C34.3168 47.9273 33.5572 47.8109 32.7963 47.5742C30.8228 46.9624 28.9944 44.5414 26.5146 43.4999C25.105 42.9074 23.3368 43.7271 21.5741 43.1605C19.4856 42.4872 17.9159 41.1679 16.899 39.1671C15.4347 36.2807 16.6171 34.4154 15.5482 31.9396C15.0446 30.7764 12.8727 29.7554 11.8408 27.9188C10.3272 25.2241 10.9403 22.6388 13.8772 18.7548C15.6509 16.4078 15.9547 14.8134 16.0669 13.0794C16.1709 11.4727 16.2366 9.84683 17.6339 7.77208C20.0289 4.21517 24.704 6.20507 27.229 4.7626C29.0245 3.73617 30.4766 2.11852 31.7685 1.30012C32.7867 0.652784 33.7954 0.20663 35.0736 0.261373V0.261373Z" fill="#ADADAD"/>
<path fill-rule="evenodd" clip-rule="evenodd" d="M35.0737 0.262799C36.3533 0.206688 37.3606 0.65421 38.3788 1.30017C39.6707 2.11858 41.1241 3.73623 42.9183 4.76265C44.926 5.90952 48.2941 4.88719 50.7931 6.20786L22.5841 43.3536C22.2488 43.3262 21.9108 43.2687 21.5741 43.1606C19.4843 42.4873 17.9159 41.1693 16.8991 39.1671C15.4347 36.2808 16.6172 34.4154 15.5483 31.9397C15.0447 30.7764 12.8728 29.7555 11.8408 27.9188C10.3272 25.2241 10.9403 22.6389 13.8759 18.7549C15.6509 16.4092 15.9548 14.8134 16.067 13.0794C16.171 11.4727 16.2367 9.84689 17.6326 7.77214C20.029 4.21386 24.7054 6.20513 27.229 4.76265C29.0246 3.73623 30.478 2.11858 31.7686 1.30017C32.7868 0.65421 33.7954 0.206688 35.0737 0.262799V0.262799Z" fill="#D3D3D3"/>
<path d="M35.0051 42.2545C44.8341 42.2545 52.802 34.2866 52.802 24.4576C52.802 14.6287 44.8341 6.66077 35.0051 6.66077C25.1762 6.66077 17.2083 14.6287 17.2083 24.4576C17.2083 34.2866 25.1762 42.2545 35.0051 42.2545Z" fill="#7E7E7E"/>
<path fill-rule="evenodd" clip-rule="evenodd" d="M35.0051 10.2314C42.862 10.2314 49.23 16.6008 49.23 24.4577C49.23 32.3147 42.862 38.684 35.0051 38.684C27.1481 38.684 20.7788 32.3147 20.7788 24.4577C20.7788 16.6008 27.1481 10.2314 35.0051 10.2314V10.2314Z" fill="#ADADAD"/>
<path fill-rule="evenodd" clip-rule="evenodd" d="M35.0051 10.2314C38.7659 10.2314 42.1887 11.6917 44.7315 14.0758L27.2905 36.4108C26.6582 36.003 26.0601 35.5445 25.5017 35.0436C22.6031 32.4406 20.7788 28.662 20.7788 24.4577C20.7788 16.6008 27.1481 10.2314 35.0051 10.2314V10.2314Z" fill="#D3D3D3"/>
<path d="M35.4253 16.1437L37.6575 21.3702L43.3179 21.878C43.5683 21.8999 43.7531 22.1202 43.7312 22.3693C43.7216 22.4911 43.6641 22.5978 43.5779 22.6717L39.2957 26.412L40.563 31.9547C40.6191 32.1997 40.4658 32.4433 40.2208 32.4994C40.0949 32.5282 39.9704 32.5022 39.8705 32.4378L35.0052 29.5283L30.1249 32.4461C29.91 32.5747 29.6308 32.5049 29.5022 32.29C29.4392 32.1847 29.4242 32.0656 29.4488 31.9547L30.7161 26.412L26.4325 22.6717C26.2436 22.5075 26.2245 22.2201 26.3901 22.0312C26.4735 21.9354 26.5899 21.8834 26.7076 21.8766L32.3543 21.3702L34.5878 16.1409C34.6863 15.9096 34.9532 15.8029 35.1831 15.9014C35.2981 15.9493 35.3816 16.0383 35.4253 16.1437V16.1437Z" fill="#7E7E7E"/>
</g>
<defs>
<clipPath id="clip0_65_85">
<rect width="70" height="70" fill="white"/>
</clipPath>
</defs>
</svg>
