<svg width="70" height="70" viewBox="0 0 70 70" fill="none" xmlns="http://www.w3.org/2000/svg">
<path fill-rule="evenodd" clip-rule="evenodd" d="M30.7129 41.9549L51.3269 38.3893L59.9999 58.7576L49.2744 58.6346L40.4612 65.8164L30.7129 41.9549Z" fill="#D0401B"/>
<path fill-rule="evenodd" clip-rule="evenodd" d="M42.5696 39.6949L20.4692 40.2828L11 62.9071L21.7256 62.7826L30.5388 69.9645L42.5696 39.6949Z" fill="#FF6600"/>
<path fill-rule="evenodd" clip-rule="evenodd" d="M35.9368 0.0396889C37.2094 -0.0149986 38.2126 0.430705 39.2239 1.07738C40.5088 1.89496 41.9543 3.51098 43.7387 4.53637C46.2499 5.97738 50.8995 3.98949 53.2814 7.54281C54.6711 9.61547 54.7365 11.2397 54.8399 12.8448C54.9515 14.577 55.2537 16.1698 57.0177 18.5145C59.94 22.3946 60.5484 24.9772 59.043 27.6692C58.0167 29.5039 55.8567 30.5239 55.3558 31.686C54.2927 34.1592 55.4687 36.0227 54.0124 38.9061C53.001 40.9049 51.4412 42.2229 49.3628 42.8955C47.6097 43.4616 45.8511 42.6426 44.4492 43.2346C41.9828 44.275 40.1644 46.6936 38.203 47.3047C37.4449 47.5412 36.6909 47.6575 35.9368 47.652C35.1841 47.6575 34.4287 47.5412 33.6719 47.3047C31.7092 46.6936 29.8907 44.275 27.4244 43.2346C26.0225 42.6426 24.2639 43.4616 22.5108 42.8955C20.4337 42.2229 18.8725 40.9049 17.8612 38.9061C16.4049 36.0227 17.5809 34.1592 16.5178 31.686C16.0169 30.5239 13.8569 29.5039 12.8306 27.6692C11.3252 24.9772 11.935 22.3946 14.8559 18.5145C16.6199 16.1698 16.9221 14.577 17.0337 12.8448C17.1371 11.2397 17.2025 9.61547 18.5922 7.54281C20.9741 3.98949 25.6237 5.97738 28.1349 4.53637C29.9207 3.51098 31.3648 1.89496 32.6497 1.07738C33.6624 0.430705 34.6655 -0.0149986 35.9368 0.0396889V0.0396889Z" fill="#F5C800"/>
<path fill-rule="evenodd" clip-rule="evenodd" d="M35.9369 0.041115C37.2095 -0.0149397 38.2113 0.432131 39.2239 1.07744C40.5088 1.89502 41.9543 3.51104 43.7387 4.53643C45.7355 5.68213 49.0852 4.66084 51.5706 5.98018L23.5154 43.0884C23.1819 43.061 22.8457 43.0036 22.5109 42.8956C20.4324 42.223 18.8726 40.9063 17.8613 38.9062C16.4049 36.0228 17.5809 34.1593 16.5179 31.686C16.017 30.5239 13.8569 29.504 12.8306 27.6692C11.3252 24.9772 11.935 22.3946 14.8546 18.5146C16.62 16.1712 16.9221 14.5771 17.0337 12.8448C17.1372 11.2397 17.2025 9.61553 18.5909 7.54287C20.9742 3.98819 25.6251 5.97744 28.135 4.53643C29.9207 3.51104 31.3662 1.89502 32.6498 1.07744C33.6624 0.432131 34.6656 -0.0149397 35.9369 0.041115V0.041115Z" fill="#FFDD61"/>
<path d="M35.8688 41.9904C45.6442 41.9904 53.5687 34.0305 53.5687 24.2115C53.5687 14.3925 45.6442 6.43262 35.8688 6.43262C26.0935 6.43262 18.1689 14.3925 18.1689 24.2115C18.1689 34.0305 26.0935 41.9904 35.8688 41.9904Z" fill="#E37E00"/>
<path fill-rule="evenodd" clip-rule="evenodd" d="M35.869 9.99963C43.6831 9.99963 50.0163 16.3625 50.0163 24.2115C50.0163 32.0606 43.6831 38.4235 35.869 38.4235C28.0548 38.4235 21.7202 32.0606 21.7202 24.2115C21.7202 16.3625 28.0548 9.99963 35.869 9.99963V9.99963Z" fill="#F5C800"/>
<path fill-rule="evenodd" clip-rule="evenodd" d="M35.869 9.99963C39.6093 9.99963 43.0134 11.4584 45.5424 13.8401L28.1964 36.1526C27.5675 35.7451 26.9727 35.2871 26.4174 34.7867C23.5346 32.1863 21.7202 28.4115 21.7202 24.2115C21.7202 16.3625 28.0548 9.99963 35.869 9.99963V9.99963Z" fill="#FFDD61"/>
<path d="M36.2866 15.906L38.5066 21.1272L44.1362 21.6345C44.3852 21.6563 44.569 21.8765 44.5472 22.1253C44.5377 22.247 44.4805 22.3536 44.3948 22.4274L40.1359 26.164L41.3962 31.7011C41.452 31.9458 41.2996 32.1892 41.056 32.2452C40.9307 32.2739 40.8069 32.2479 40.7075 32.1837L35.8688 29.277L31.015 32.1919C30.8014 32.3204 30.5237 32.2507 30.3957 32.036C30.3331 31.9308 30.3182 31.8118 30.3427 31.7011L31.603 26.164L27.3428 22.4274C27.1549 22.2634 27.1359 21.9763 27.3006 21.7876C27.3836 21.6919 27.4993 21.6399 27.6164 21.6331L33.2323 21.1272L35.4536 15.9032C35.5516 15.6722 35.817 15.5655 36.0457 15.664C36.16 15.7118 36.2431 15.8007 36.2866 15.906V15.906Z" fill="#E37E00"/>
</svg>
