<svg width="50" height="50" viewBox="0 0 50 50" fill="none" xmlns="http://www.w3.org/2000/svg">
<g clip-path="url(#clip0_313_34)">
<path fill-rule="evenodd" clip-rule="evenodd" d="M21.6358 0.203416C13.4671 1.22383 5.76651 6.91192 2.25017 14.5228C-1.49995 22.6389 -0.498246 32.6347 4.77415 39.7114C12.8896 50.604 27.5025 53.2075 38.8913 45.7896C40.7534 44.5768 44.5516 40.7786 45.7644 38.9166C51.7078 29.7914 51.3213 18.3008 44.7834 9.74917C43.4508 8.00603 40.6095 5.3587 38.7372 4.11563C33.7881 0.829959 27.7251 -0.557162 21.6358 0.203416ZM30.1841 4.1753C36.3956 5.70871 41.6829 10.111 44.4685 16.0683C45.918 19.1687 46.3315 21.1509 46.3315 25.0008C46.3315 27.7793 46.246 28.6585 45.8225 30.2331C44.1009 36.6357 39.8612 41.7104 33.9081 44.4938C30.8153 45.9399 28.8252 46.356 24.9756 46.3618C20.9545 46.3678 19.0691 45.9452 15.5935 44.2587C9.88913 41.4906 5.82418 36.5208 4.12201 30.2331C3.38236 27.5014 3.38236 22.5002 4.12201 19.7685C6.42111 11.2761 13.1846 5.15787 21.8585 3.72443C23.6822 3.42296 28.107 3.66254 30.1841 4.1753ZM17.3328 17.3892C17.0343 17.7072 16.8488 18.191 16.8488 18.6521C16.8488 19.3107 17.179 19.7329 19.6233 22.1985L22.3977 24.9973L19.6233 27.8013C17.138 30.3131 16.8488 30.6865 16.8488 31.3825C16.8488 32.3897 17.6007 33.1276 18.6269 33.1276C19.2855 33.1276 19.7076 32.7974 22.1733 30.3532L24.972 27.5787L27.7761 30.3532C30.2878 32.8384 30.6612 33.1276 31.3572 33.1276C32.3636 33.1276 33.1024 32.3757 33.1024 31.3511C33.1024 30.6951 32.7684 30.2679 30.3279 27.8013L27.5534 24.9973L30.3279 22.1985C32.8165 19.6881 33.1024 19.3194 33.1024 18.621C33.1024 17.6128 32.3511 16.874 31.3258 16.874C30.6699 16.874 30.2426 17.208 27.7761 19.6485L24.972 22.423L22.1733 19.6485C19.6629 17.1599 19.2942 16.874 18.5957 16.874C18.0696 16.874 17.6599 17.0412 17.3328 17.3892Z" fill="#100100"/>
</g>
<defs>
<clipPath id="clip0_313_34">
<rect width="50" height="50" fill="white"/>
</clipPath>
</defs>
</svg>
