<svg width="64" height="64" viewBox="0 0 64 64" fill="none" xmlns="http://www.w3.org/2000/svg">
<path d="M28 3C25.791 3 24 4.791 24 7V9H23.5996L7 11V14H57V11L40.4004 9H40V7C40 4.791 38.209 3 36 3H28ZM28 7H36V9H28V7ZM10 16L14 58H50L53.9238 17L10 16ZM32 23C33.333 23 34 24 34 24V53H30V24C30 24 30.667 23 32 23ZM18.9766 23.0703C20.3066 22.9773 21.043 23.9297 21.043 23.9297L23.0078 53H18.9961L17.0527 24.207C17.0527 24.207 17.6466 23.1633 18.9766 23.0703ZM44.9785 23.0703C46.3085 23.1633 46.9043 24.207 46.9043 24.207L44.9609 53H40.9492L42.9141 23.9297C42.9141 23.9297 43.6485 22.9773 44.9785 23.0703Z" fill="#100100"/>
</svg>
