<svg width="64" height="64" viewBox="0 0 64 64" fill="none" xmlns="http://www.w3.org/2000/svg">
<path fill-rule="evenodd" clip-rule="evenodd" d="M47.3472 3.84375C46.2156 4.45319 41.1305 9.36464 28.2368 22.3018L10.6684 39.929L7.83433 48.4645L5 57L13.5123 54.1476L22.0246 51.2955L39.7067 33.6921C58.2131 15.2679 58.6472 14.7768 58.9686 11.9147C59.1772 10.0547 58.3358 7.82745 56.7593 6.06588C54.0326 3.01898 50.4491 2.17307 47.3472 3.84375ZM44.9915 17.1355L47.6132 19.7816L33.7116 33.712L19.8099 47.6422L15.6564 49.019C13.3722 49.7761 11.5459 50.2907 11.5979 50.1627C11.6502 50.0343 12.3017 48.1205 13.0457 45.9099L14.3986 41.8902L28.2116 28.1896C35.8087 20.6544 42.1021 14.4893 42.1971 14.4893C42.2918 14.4893 43.5493 15.6801 44.9915 17.1355Z" fill="#100100"/>
</svg>
