<svg width="50" height="50" viewBox="0 0 50 50" fill="none" xmlns="http://www.w3.org/2000/svg">
<g opacity="0.2">
<path d="M4.6875 11.7188H29.6875C31.3451 11.7188 32.9348 12.3772 34.1069 13.5493C35.279 14.7214 35.9375 16.3111 35.9375 17.9688V36.7188C35.9375 37.1332 35.7729 37.5306 35.4799 37.8236C35.1868 38.1166 34.7894 38.2812 34.375 38.2812H9.375C7.7174 38.2812 6.12769 37.6228 4.95558 36.4507C3.78348 35.2786 3.125 33.6889 3.125 32.0312V13.2812C3.125 12.8668 3.28962 12.4694 3.58265 12.1764C3.87567 11.8834 4.2731 11.7187 4.6875 11.7188Z" fill="#100100"/>
</g>
<path d="M47.6593 14.2736C47.4226 14.1363 47.154 14.0635 46.8803 14.0625C46.6066 14.0616 46.3375 14.1326 46.0999 14.2683L37.5 19.1825V17.9688C37.4976 15.8975 36.6738 13.9117 35.2092 12.4471C33.7445 10.9825 31.7588 10.1586 29.6875 10.1562H4.6875C3.85899 10.1572 3.06468 10.4867 2.47884 11.0726C1.89299 11.6584 1.56345 12.4527 1.5625 13.2812V32.0312C1.56487 34.1025 2.38873 36.0883 3.85335 37.5529C5.31796 39.0175 7.30372 39.8414 9.375 39.8438H34.375C35.2035 39.8428 35.9978 39.5133 36.5837 38.9274C37.1695 38.3416 37.4991 37.5473 37.5 36.7188V30.8175L46.0999 35.7317C46.3375 35.8675 46.6066 35.9384 46.8803 35.9375C47.154 35.9365 47.4226 35.8637 47.6593 35.7264C47.896 35.589 48.0924 35.3919 48.229 35.1547C48.3656 34.9175 48.4375 34.6487 48.4375 34.375V15.625C48.4375 15.3513 48.3657 15.0824 48.2291 14.8453C48.0925 14.6081 47.896 14.411 47.6593 14.2736ZM34.375 36.7188H9.375C8.13223 36.7173 6.94078 36.223 6.06201 35.3442C5.18324 34.4655 4.68892 33.274 4.6875 32.0312V13.2812H29.6875C30.9303 13.2827 32.1217 13.777 33.0005 14.6558C33.8793 15.5345 34.3736 16.726 34.375 17.9688L34.3754 21.8982C34.3755 21.9036 34.3753 21.909 34.3754 21.9145L34.376 28.0766C34.3755 28.0929 34.376 28.1092 34.376 28.1254L34.3769 36.7188H34.375ZM45.3125 31.6826L37.5 27.2182V22.7818L45.3125 18.3174V31.6826Z" fill="#100100"/>
</svg>
