<svg width="50" height="50" viewBox="0 0 50 50" fill="none" xmlns="http://www.w3.org/2000/svg">
<path d="M29.6128 0.568865C28.7599 0.400791 27.5063 0.20686 26.8343 0.142216C26.1623 0.0775725 25.2318 0.0129287 24.7665 0C24.3013 0 23.2545 0.051715 22.4403 0.116359C21.6261 0.193931 20.2562 0.387863 19.4033 0.568865C18.5503 0.736939 17.245 1.08601 16.4955 1.34459C15.7459 1.60316 14.4665 2.13324 13.6523 2.52111C12.8381 2.9219 11.6104 3.60712 9.71062 4.86121L8.57335 3.4649C7.81087 2.50818 7.30685 1.99103 6.99669 1.86174C6.75114 1.75831 6.4539 1.66781 6.35051 1.66781C6.24712 1.66781 5.94988 1.77124 5.69141 1.8876C5.43294 2.01689 5.1357 2.28839 5.01939 2.50818C4.916 2.72797 4.10182 5.22322 3.2101 8.06754C2.07283 11.7134 1.60758 13.4071 1.60758 13.8208C1.62051 14.1958 1.72389 14.5448 1.91774 14.8293C2.08575 15.062 2.44761 15.3594 3.24887 15.7601L8.99983 15.2301C12.1661 14.9456 14.8671 14.6612 15.0093 14.6095C15.1514 14.5448 15.397 14.338 15.565 14.1311C15.733 13.9243 15.8881 13.6398 15.9268 13.4976C15.9785 13.3554 15.9656 13.071 15.9268 12.8512C15.8881 12.6314 15.5004 12.0237 14.2985 10.524L14.6474 10.2396C14.8542 10.0844 15.565 9.65778 16.237 9.3087C16.909 8.95962 17.9946 8.49419 18.6278 8.26147C19.2611 8.04168 20.3725 7.74432 21.0833 7.58918C22.0655 7.38232 22.8668 7.31767 24.3788 7.31767C25.697 7.30474 26.7697 7.38232 27.5451 7.52453C28.1783 7.64089 29.1993 7.88654 29.8067 8.08047C30.4141 8.26147 31.3963 8.64933 32.0037 8.93377C32.6111 9.20527 33.6837 9.82585 34.3945 10.2913C35.1829 10.8214 36.1909 11.6617 36.9792 12.4504C37.703 13.1744 38.6076 14.2216 39.0082 14.7905C39.4089 15.3594 40.055 16.4971 40.4557 17.3116C40.8434 18.1261 41.3215 19.3285 41.5025 19.962C41.6834 20.5955 41.916 21.6169 42.0194 22.2245C42.1357 22.8322 42.2133 24.0475 42.2133 24.9396C42.2133 25.8316 42.1228 27.1116 42.0194 27.7839C41.9289 28.4562 41.6834 29.5422 41.5025 30.1757C41.3215 30.8092 40.8563 31.9728 40.4815 32.7615C40.0938 33.5501 39.4089 34.7008 38.9565 35.3343C38.5171 35.9807 37.6383 36.9892 37.0309 37.5968C36.4235 38.2174 35.4672 39.0319 34.8985 39.4456C34.3428 39.8464 33.4382 40.4023 32.9083 40.6997C32.3785 40.9841 31.448 41.3979 30.8406 41.6306C30.2332 41.8504 29.1347 42.1736 28.3851 42.3417C27.5709 42.5356 26.382 42.6907 25.4127 42.7424C24.3917 42.7942 23.3191 42.7554 22.5049 42.6519C21.7941 42.5744 20.6827 42.3675 20.0494 42.1994C19.4162 42.0443 18.3565 41.6952 17.7232 41.4237C17.09 41.1651 16.1595 40.7126 15.6554 40.4153C15.1514 40.1308 14.3502 39.5878 13.8461 39.2129C13.3421 38.8509 12.4633 38.0493 11.8689 37.4546C11.2873 36.8728 10.4473 35.8902 10.0208 35.2826C9.59431 34.6749 8.96106 33.6277 8.63797 32.9554C8.30196 32.2831 7.91426 31.4686 7.7721 31.1454C7.64286 30.8221 7.31977 30.3567 7.06131 30.1111C6.81576 29.8654 6.37636 29.5422 6.09204 29.4C5.69141 29.206 5.31663 29.1414 4.4766 29.1414C3.68827 29.1414 3.26179 29.206 2.96455 29.3741C2.73193 29.4905 2.3313 29.7878 2.07283 30.0076C1.81436 30.2403 1.47835 30.667 1.33619 30.9514C1.16818 31.2876 1.05187 31.8177 1.0131 32.4382C0.974327 33.2269 1.0131 33.563 1.24572 34.1836C1.41373 34.6103 1.80143 35.4894 2.12452 36.1229C2.44761 36.7564 2.9904 37.7519 3.33933 38.3208C3.70119 38.8897 4.37321 39.8464 4.83846 40.4541C5.31663 41.0617 6.24712 42.096 6.93207 42.7683C7.60409 43.4406 8.71552 44.3973 9.38754 44.9015C10.0596 45.4187 11.171 46.1556 11.843 46.5564C12.515 46.9572 13.7428 47.5778 14.5569 47.9269C15.3711 48.276 16.5342 48.7155 17.1416 48.9095C17.7491 49.0905 18.7959 49.349 19.4679 49.4913C20.1399 49.6335 21.3289 49.8145 22.1172 49.905C22.9572 49.9955 24.2754 50.0213 25.3481 49.9825C26.3432 49.9308 27.7131 49.8145 28.3851 49.6981C29.0571 49.5818 30.2461 49.3232 31.0344 49.1163C31.8228 48.9095 32.9471 48.5475 33.5545 48.3018C34.1619 48.0562 35.2087 47.5778 35.8807 47.2416C36.5528 46.9055 37.6383 46.272 38.2716 45.8453C38.9048 45.4187 39.8483 44.7335 40.3393 44.3327C40.8304 43.919 41.7997 43.0139 42.4847 42.3158C43.1567 41.6047 44.0872 40.5446 44.5266 39.9369C44.9789 39.3293 45.6768 38.282 46.0645 37.6097C46.4651 36.9374 47.0337 35.8256 47.331 35.1533C47.6282 34.481 48.0547 33.3562 48.2744 32.658C48.4941 31.9728 48.8172 30.6929 48.9981 29.8137C49.2566 28.6243 49.347 27.6675 49.4117 25.9092C49.4633 24.3965 49.4375 23.1295 49.3341 22.2892C49.2436 21.5781 49.0498 20.4145 48.9076 19.7034C48.7655 18.9923 48.4165 17.7382 48.1322 16.9237C47.8608 16.1092 47.318 14.8034 46.9303 14.0148C46.5556 13.2261 45.9352 12.1272 45.5734 11.5583C45.1986 10.9894 44.63 10.1749 44.2939 9.74828C43.9709 9.32163 43.1567 8.40369 42.4717 7.69261C41.7997 6.99445 40.8304 6.08944 40.3393 5.67572C39.8483 5.27493 38.9436 4.60263 38.3362 4.20184C37.7288 3.80105 36.5657 3.12876 35.7515 2.70211C34.9373 2.28839 33.5674 1.70659 32.7145 1.40923C31.8615 1.1248 30.4658 0.736939 29.6128 0.568865Z" fill="#100100"/>
</svg>
