<svg width="57" height="55" viewBox="0 0 57 55" fill="none" xmlns="http://www.w3.org/2000/svg">
<path fill-rule="evenodd" clip-rule="evenodd" d="M4.64246 0.456753C2.71958 1.10733 1.54087 2.09692 0.767893 3.71016L0.0978801 5.10884L0.0288144 27.0412C-0.0473872 51.1786 -0.0899479 50.4427 1.51054 52.6056C2.04701 53.3302 2.7629 53.8841 3.74715 54.3356L5.19498 55H28.132H51.069L52.3768 54.4206C53.9783 53.7114 54.8118 52.8883 55.5788 51.2581L56.166 50.011L56.236 30.9631L56.3057 11.9155L55.6488 10.5106C54.72 8.52514 47.631 1.56758 45.5896 0.638107L44.1879 0L25.0737 0.00548804C7.39438 0.0109761 5.86067 0.0446526 4.64246 0.456753ZM42.6702 2.85252L43.2959 3.4647V11.475C43.2959 19.6371 43.2391 20.1722 42.2985 20.8789C41.9914 21.1097 38.3197 21.1848 27.0631 21.1908L12.232 21.1988L11.5169 20.5968L10.8018 19.9946V11.7611V3.52756L11.4196 2.88395L12.0376 2.24011H27.0412H42.0448L42.6702 2.85252ZM32.5919 11.7194V18.9537H35.7138H38.8358V11.7194V4.48522H35.7138H32.5919V11.7194ZM48.2918 27.6944C49.6825 28.212 49.6505 27.9175 49.6592 40.2661C49.6673 51.6929 49.6656 47.3469 49.1133 47.9225L48.559 48.5H28.132H7.70506L7.08702 47.8562L6.46927 47.213L6.39535 40.8878C6.34539 33.6732 6.41243 29.851 6.60129 29.1649C7.09264 27.378 6.12291 27.4558 28.0517 27.4449C40.9808 27.4384 47.831 27.5228 48.2918 27.6944Z" fill="black"/>
</svg>
