<svg width="50" height="22" viewBox="0 0 50 22" fill="none" xmlns="http://www.w3.org/2000/svg">
<g clip-path="url(#clip0_311_34)">
<path fill-rule="evenodd" clip-rule="evenodd" d="M0.824529 0.0806818C0.201407 0.307982 -0.148039 1.03198 0.0604148 1.66378C0.182535 2.03388 0.00397873 1.87858 4.27089 5.32588C6.04383 6.75828 8.14612 8.46058 8.94266 9.10888C9.73923 9.75708 11.3519 11.0632 12.5264 12.0112C13.701 12.9592 15.509 14.42 16.5442 15.2575C22.2743 19.8935 24.0036 21.2573 24.2214 21.3119C24.763 21.4479 25.0836 21.2903 26.3475 20.267C27.027 19.7169 28.2767 18.7073 29.1247 18.0236C29.9726 17.3398 31.5132 16.0951 32.5482 15.2576C33.5832 14.42 35.4963 12.8741 36.7995 11.8221C38.1027 10.7701 40.0099 9.22478 41.0377 8.38828C42.0655 7.55178 43.3617 6.49938 43.9181 6.04968C44.4745 5.60008 45.2135 5.00088 45.5602 4.71828C45.9069 4.43558 46.3526 4.07818 46.5505 3.92408C47.447 3.22608 48.6245 2.24038 48.8142 2.02908C49.3312 1.45348 49.0695 0.45938 48.3128 0.12468C47.6746 -0.15772 47.372 -0.0244215 45.8762 1.19768C45.1678 1.77648 43.2848 3.30258 41.6917 4.58928C40.0987 5.87588 38.5219 7.15008 38.1879 7.42098C37.8539 7.69178 37.2022 8.21878 36.7397 8.59208C36.2771 8.96548 35.0734 9.93888 34.0647 10.7553C33.056 11.5718 31.0798 13.1695 29.6732 14.3057C28.2667 15.4419 26.5372 16.8415 25.8299 17.4159L24.5441 18.4604L23.5875 17.6815C23.0614 17.2531 21.8531 16.2756 20.9024 15.509C19.9517 14.7426 18.1857 13.3132 16.9781 12.3326C15.7704 11.3521 13.8994 9.83808 12.8202 8.96828C9.76433 6.50508 5.99282 3.45298 3.95378 1.79318C2.93141 0.960883 2.0064 0.232479 1.8982 0.174279C1.56547 -0.00442083 1.15576 -0.0402182 0.824529 0.0806818Z" fill="#100100"/>
</g>
<defs>
<clipPath id="clip0_311_34">
<rect width="50" height="22" fill="white"/>
</clipPath>
</defs>
</svg>
