<svg width="50" height="50" viewBox="0 0 50 50" fill="none" xmlns="http://www.w3.org/2000/svg">
<g clip-path="url(#clip0_309_52)">
<path fill-rule="evenodd" clip-rule="evenodd" d="M38.3 45.3657C38.9708 45.831 39.8353 45.9473 40.6062 45.6616C41.377 45.3738 41.9436 44.7289 42.1145 43.9473C43.9248 35.6126 48.3164 14.5166 49.9643 6.935C50.0893 6.36357 49.8809 5.76969 49.4226 5.38806C48.9643 5.00643 48.3289 4.89622 47.7622 5.10234C39.027 8.26969 12.1256 18.1575 1.12997 22.1432C0.432069 22.3962 -0.0220873 23.0534 0.000828843 23.7738C0.0258283 24.4962 0.52165 25.1228 1.23622 25.333C6.16736 26.7779 12.6401 28.7881 12.6401 28.7881C12.6401 28.7881 15.6651 37.7371 17.2421 42.2881C17.44 42.8595 17.8963 43.3085 18.4983 43.4636C19.0983 43.6167 19.74 43.4554 20.1879 43.0412C22.7211 40.6983 26.6377 37.0758 26.6377 37.0758C26.6377 37.0758 34.0792 42.4208 38.3 45.3657ZM15.363 27.6575L18.8608 38.9595L19.6379 31.8024C19.6379 31.8024 33.1522 19.8615 40.8562 13.0554C41.0811 12.8554 41.1124 12.5207 40.9249 12.286C40.7395 12.0513 40.3978 11.9962 40.1416 12.1554C31.2126 17.7411 15.363 27.6575 15.363 27.6575Z" fill="#100100"/>
</g>
<defs>
<clipPath id="clip0_309_52">
<rect width="50" height="50" fill="white"/>
</clipPath>
</defs>
</svg>
