<svg width="50" height="50" viewBox="0 0 50 50" fill="none" xmlns="http://www.w3.org/2000/svg">
<path d="M44.7495 14.8774C44.7797 15.3149 44.7797 15.7524 44.7797 16.194C44.7797 29.6476 34.5378 45.1637 15.81 45.1637V45.1556C10.2777 45.1637 4.86039 43.579 0.203125 40.5911C1.00756 40.6879 1.81603 40.7363 2.62652 40.7383C7.21119 40.7423 11.6648 39.204 15.2716 36.3714C10.9148 36.2887 7.09426 33.448 5.75958 29.3008C7.28579 29.5952 8.85837 29.5347 10.3563 29.1254C5.60636 28.1657 2.18902 23.9923 2.18902 19.1456V19.0165C3.60434 19.8048 5.18902 20.2423 6.80998 20.2907C2.33619 17.3008 0.957157 11.3492 3.65877 6.69601C8.82813 13.0569 16.4551 16.9238 24.6426 17.3331C23.8221 13.7968 24.943 10.0911 27.5882 7.60528C31.689 3.75044 38.1386 3.94802 41.9934 8.04681C44.2737 7.59722 46.4591 6.76052 48.4591 5.57504C47.6991 7.9319 46.1083 9.93391 43.9833 11.206C46.0015 10.9681 47.9733 10.4278 49.8301 9.60327C48.4632 11.6516 46.7414 13.4359 44.7495 14.8774Z" fill="#100100"/>
</svg>
