<svg width="50" height="50" viewBox="0 0 50 50" fill="none" xmlns="http://www.w3.org/2000/svg">
<path d="M40.8594 22.5268C40.8594 22.3929 40.8817 22.2589 40.8817 22.125C40.8817 14.8705 35.1004 9 27.9688 9C22.8237 9 18.404 12.058 16.3281 16.4777C15.4241 16.0201 14.4085 15.7522 13.3371 15.7522C10.0446 15.7522 7.29911 18.1964 6.77455 21.3884C2.82366 22.75 0 26.5335 0 30.9866C0 36.5893 4.47545 41.1429 9.98884 41.1429H21.4286V32.2143H16.0491L25 22.8728L33.9509 32.2031H28.5714V41.1317H40.8817C45.9263 41.1317 50 36.9464 50 31.8237C50 26.7009 45.904 22.5379 40.8594 22.5268Z" fill="#100100"/>
</svg>
