<svg width="216" height="50" viewBox="0 0 216 50" fill="none" xmlns="http://www.w3.org/2000/svg">
<g clip-path="url(#clip0_314_34)">
<path fill-rule="evenodd" clip-rule="evenodd" d="M177.188 30.8472C176.818 30.8357 176.523 30.9832 176.303 31.2897C177.246 31.5273 178.131 31.478 178.959 31.1422C182.36 30.9068 185.605 30.0706 188.695 28.6344C191.743 27.0126 194.693 25.2424 197.546 23.3237C199.197 21.6736 200.623 19.8541 201.824 17.8655C204.157 13.101 206.713 8.47865 209.495 3.99881C210.198 3.13523 210.935 2.2991 211.708 1.49099C212.089 1.34642 212.483 1.29715 212.888 1.34347C212.613 7.23153 210.892 12.6404 207.725 17.5705C206.191 19.203 204.568 20.7274 202.857 22.1436C198.356 24.2953 194.029 26.7541 189.875 29.5195C191.642 29.3561 193.412 29.061 195.186 28.6344C201.23 26.1039 207.131 23.2518 212.888 20.0783C213.66 19.8358 214.447 19.6883 215.248 19.6358C214.457 22.4375 212.883 24.7485 210.527 26.5691C204.215 30.4875 197.331 31.9627 189.875 30.9947C189.106 30.7533 188.319 30.6058 187.514 30.5522C185.268 31.1384 183.006 31.6792 180.729 32.1748C182.885 33.083 185.148 33.673 187.514 33.9452C193.018 34.574 198.525 35.1641 204.037 35.7154C204.627 35.9121 205.217 36.1084 205.807 36.3055C206.2 36.6985 206.2 37.0922 205.807 37.4856C201.41 39.0267 196.887 39.7151 192.235 39.5508C186.831 38.5694 182.11 36.2581 178.073 32.6174C176.258 32.2772 174.39 32.228 172.468 32.4699C172.771 32.6212 173.066 32.7687 173.353 32.9125C178.254 35.1591 181.598 38.7982 183.384 43.8286C182.313 43.929 181.329 43.683 180.434 43.0912C174.126 39.0518 167.635 35.3147 160.961 31.8798C157.656 30.4444 154.214 29.7069 150.635 29.667C148.812 29.2785 146.944 29.2785 145.029 29.667C145.164 29.9025 145.361 30.0007 145.619 29.9621C153.137 31.4379 159.48 34.9783 164.649 40.5833C166.966 43.2111 168.245 46.2598 168.485 49.7296C167.823 49.9286 167.184 49.7813 166.567 49.2869C161.63 44.3492 156.516 39.6286 151.225 35.1253C148.615 33.0812 145.763 31.4095 142.669 30.1096C138.642 30.1415 134.708 30.7808 130.867 32.0273C130.609 31.9887 130.412 32.0869 130.277 32.3224C131.242 32.6136 132.225 32.7118 133.228 32.6174C137.588 33.0777 141.521 34.6022 145.029 37.1906C147.46 39.2717 148.935 41.8777 149.455 45.0091C148.271 45.0084 147.19 44.6644 146.21 43.9763C142.669 41.4194 139.128 38.8624 135.588 36.3055C132.799 34.4571 129.75 33.5717 126.442 33.6502C125.253 34.2449 124.072 34.8349 122.902 35.4204C128.625 35.4962 132.608 38.1022 134.851 43.2386C134.998 44.1184 135.047 45.0038 134.998 45.8942C133.958 45.7674 133.073 45.325 132.343 44.5664C130.268 42.3935 128.105 40.3283 125.852 38.3707C124.584 37.4909 123.208 36.8515 121.721 36.4528C120.769 36.732 119.884 37.1747 119.066 37.7806C117.29 39.2624 115.617 40.8359 114.05 42.5012C113.771 42.6435 113.476 42.6926 113.165 42.6485C113.119 42.2435 113.168 41.8498 113.313 41.4684C115.166 39.3181 117.281 37.4985 119.656 36.0104C120.406 35.3598 121.045 34.622 121.574 33.7975C122.742 30.8124 123.725 27.7637 124.524 24.6514C124.82 23.5704 125.361 22.636 126.147 21.8485C126.482 21.6276 126.777 21.6765 127.032 21.9961C128.245 25.8522 127.655 29.3927 125.262 32.6174C125.36 32.7157 125.459 32.8142 125.557 32.9125C128.447 31.6429 130.365 29.4794 131.31 26.4216C132.629 21.4429 133.809 16.4273 134.851 11.3747C135.114 10.5533 135.458 9.76679 135.883 9.01444C136.327 8.64653 136.77 8.64653 137.211 9.01444C138.946 13.2287 138.946 17.4575 137.211 21.701C135.671 25.2058 133.459 28.2051 130.572 30.6997C132.218 30.4105 133.89 30.1155 135.588 29.8145C138.391 27.7985 140.801 25.389 142.816 22.5861C145.643 17.423 148.692 12.4074 151.962 7.53924C153.436 5.8298 154.174 6.12484 154.175 8.42437C153.677 14.7744 151.021 20.0358 146.21 24.2088C144.01 26.0139 141.649 27.5873 139.128 28.9294C142.06 28.6681 145.011 28.4713 147.98 28.3394C152.187 25.5097 155.579 21.9199 158.159 17.5705C160.795 13.0668 163.549 8.64123 166.419 4.29385C167.446 2.88386 168.576 1.55619 169.812 0.310841C170.194 0.166273 170.587 0.117002 170.993 0.163323C171.031 6.5854 169.212 12.3879 165.534 17.5705C161.262 22.2873 156.198 25.8767 150.34 28.3394C153.571 28.8389 156.816 29.0357 160.076 28.9294C163.367 27.608 166.169 25.592 168.485 22.8812C171.347 18.7388 174.543 14.8544 178.073 11.2272C178.839 10.5743 179.675 10.0332 180.581 9.60451C181.156 9.765 181.402 10.1583 181.319 10.7847C180.545 17.6994 177.103 22.7643 170.993 25.9791C168.43 27.4088 165.774 28.589 163.026 29.5195C166.567 30.7787 170.207 31.2706 173.943 30.9947C175.77 30.0323 177.442 28.8522 178.959 27.4542C182.024 23.3981 185.368 19.5626 188.99 15.9478C191.637 13.8914 194.439 12.0722 197.398 10.4896C197.841 10.5389 198.087 10.7847 198.136 11.2272C197.232 13.8707 195.905 16.2803 194.153 18.4556C189.144 23.4904 183.489 27.621 177.188 30.8472Z" fill="#100100"/>
<path fill-rule="evenodd" clip-rule="evenodd" d="M82.4817 32.6177C83.4701 32.6664 84.4536 32.6171 85.4321 32.4702C85.1185 32.1197 84.7248 31.9721 84.2519 32.0276C80.8708 31.077 77.4288 30.3887 73.9258 29.9624C72.1324 30.2683 70.4605 30.9077 68.9102 31.8801C66.8446 33.3554 64.7794 34.8306 62.7142 36.3057C58.0632 40.9375 53.2446 45.363 48.2576 49.5822C47.7754 49.7279 47.2834 49.7769 46.7824 49.7299C47.687 44.8339 50.0473 40.7528 53.8632 37.4859C58.4499 33.7177 63.6622 31.2098 69.5003 29.9624C69.7586 30.001 69.9552 29.9028 70.0903 29.6673C67.7821 29.2779 65.5201 29.2779 63.3042 29.6673C60.3668 29.8626 57.5148 30.502 54.7483 31.585C48.4576 34.8276 42.3602 38.368 36.4559 42.2064C35.1688 42.9981 33.7917 43.5395 32.3255 43.8293C32.2777 43.2309 32.3269 42.6408 32.473 42.0587C34.6506 38.0617 37.7486 35.013 41.7665 32.9127C42.1374 32.9242 42.4324 32.7767 42.6519 32.4702C40.8281 32.2285 39.0579 32.2775 37.341 32.6177C29.1125 39.8084 19.8681 41.4309 9.60763 37.4859C9.30753 37.1763 9.25836 36.8319 9.46008 36.4531C9.9959 36.2087 10.5368 35.9624 11.0828 35.7157C16.5658 34.913 22.0732 34.323 27.6049 33.9455C30.015 33.4796 32.3753 32.8894 34.6857 32.1751C32.2145 31.68 29.7557 31.1393 27.3098 30.5524C20.7184 31.8125 14.326 31.1732 8.13243 28.6347C5.06183 27.127 2.65235 24.9143 0.904017 21.9964C0.400448 21.2856 0.154565 20.4991 0.166425 19.6361C1.62043 19.8213 2.99728 20.2639 4.29693 20.9637C8.47047 23.198 12.6993 25.3618 16.9836 27.4545C19.8425 28.6353 22.7928 29.3239 25.8346 29.5198C21.7989 27.1079 17.6682 24.8461 13.4431 22.734C9.45673 20.1261 6.55554 16.6349 4.73951 12.2601C3.64263 8.69342 2.90505 5.05475 2.52672 1.34376C2.93192 1.29744 3.32534 1.34671 3.70686 1.49128C5.55749 3.53826 7.18021 5.75101 8.57498 8.12962C10.9027 13.2795 13.7547 18.0986 17.1311 22.5864C22.0933 26.7642 27.7483 29.567 34.0956 30.995C35.4728 31.1918 36.8493 31.1918 38.2261 30.995C32.1889 27.8103 26.7307 23.8274 21.8517 19.046C20.1142 17.0111 18.7372 14.7494 17.7211 12.2601C17.5755 11.778 17.5263 11.2862 17.5736 10.7849C18.308 10.7253 18.9966 10.8729 19.6389 11.2275C23.0023 13.4102 26.1984 15.8197 29.2276 18.4559C31.4896 21.308 33.7513 24.1598 36.0135 27.012C37.5662 28.5653 39.287 29.893 41.1764 30.995C43.3423 31.0605 45.5059 30.9622 47.6675 30.6999C49.1023 30.1692 50.5774 29.7756 52.093 29.5198C46.3801 27.7221 41.5122 24.6243 37.4887 20.2261C35.4513 17.0657 34.3695 13.6235 34.2433 9.89985C34.4089 9.74581 34.6056 9.64756 34.8334 9.60478C36.7741 10.661 38.446 12.038 39.849 13.7353C42.4771 16.927 45.0341 20.1724 47.5198 23.4715C49.6215 25.8705 52.1291 27.69 55.0433 28.9297C58.388 28.8648 61.7314 28.668 65.0744 28.3397C58.8218 25.828 53.5605 21.9433 49.29 16.6857C46.0923 11.6627 44.4695 6.15521 44.4221 0.163609C44.9556 0.160954 45.4473 0.308473 45.8973 0.606166C47.3364 2.14301 48.6642 3.76571 49.8801 5.47429C53.2486 10.9334 56.6907 16.3423 60.2066 21.7013C62.2466 24.3322 64.6562 26.5449 67.435 28.3397C70.3963 28.5379 73.347 28.7344 76.286 28.9297C69.4589 25.6383 64.689 20.4751 61.9768 13.4403C61.6158 11.0939 61.4685 8.73356 61.5341 6.35938C61.8446 6.31544 62.1397 6.36442 62.4192 6.5069C63.1632 7.1619 63.8023 7.89948 64.337 8.71968C67.6069 14.1782 70.9506 19.5871 74.3682 24.9467C75.997 26.7715 77.8165 28.3942 79.8264 29.8148C81.491 30.2568 83.1629 30.5518 84.842 30.6999C79.2986 26.0531 76.6927 20.1034 77.0235 12.8502C77.4211 11.5556 77.8635 10.2772 78.3513 9.01472C78.7446 8.62144 79.138 8.62144 79.5314 9.01472C80.2778 10.4185 80.8185 11.8937 81.1542 13.4403C81.8003 17.1064 82.5867 20.7454 83.5145 24.3566C84.2652 27.1869 85.593 29.6947 87.4973 31.8801C88.3536 32.4808 89.2387 32.7266 90.1526 32.6177C87.7102 29.3717 87.1695 25.8312 88.5301 21.9964C88.8791 21.6332 89.2231 21.6332 89.5625 21.9964C91.1397 25.2949 92.3692 28.7371 93.2506 32.3227C93.644 33.1095 94.0374 33.8961 94.4307 34.6829C97.0754 36.8352 99.6324 39.0971 102.102 41.4687C102.246 41.8504 102.296 42.2438 102.249 42.6488C101.073 41.9213 99.9907 40.9872 99.0039 39.8461C97.4307 38.466 95.7099 37.3349 93.8407 36.4531C92.3599 36.6283 91.0324 37.1693 89.8576 38.0759C87.1043 40.6329 84.3503 43.1898 81.5966 45.7468C81.2152 45.8915 80.8215 45.9408 80.4165 45.8945C80.8099 40.8249 83.4652 37.5302 88.3824 36.0107C89.7523 35.7657 91.1294 35.569 92.5132 35.4206C90.9129 34.4286 89.1917 33.7892 87.3499 33.5028C85.2016 33.7564 83.1854 34.3958 81.3016 35.4206C77.4824 37.9614 73.7453 40.6167 70.0903 43.3865C68.8678 44.3428 67.491 44.8836 65.9595 45.0094C67.2711 39.5167 70.6148 35.8286 75.991 33.9455C78.0841 33.1432 80.2473 32.7006 82.4817 32.6177Z" fill="#100100"/>
<path fill-rule="evenodd" clip-rule="evenodd" d="M63.3027 29.6671C65.5186 29.2776 67.7805 29.2776 70.0888 29.6671C69.9537 29.9025 69.757 30.0008 69.4988 29.9621C67.4885 29.6697 65.4233 29.5712 63.3027 29.6671Z" fill="#100100"/>
<path fill-rule="evenodd" clip-rule="evenodd" d="M150.635 29.6674C148.906 29.5724 147.235 29.6706 145.619 29.9624C145.361 30.0011 145.164 29.9028 145.029 29.6674C146.944 29.2788 148.812 29.2788 150.635 29.6674Z" fill="#100100"/>
<path fill-rule="evenodd" clip-rule="evenodd" d="M177.188 30.8473C177.709 31.1308 178.299 31.2294 178.958 31.1423C178.131 31.4781 177.246 31.5274 176.303 31.2899C176.522 30.9833 176.817 30.8358 177.188 30.8473Z" fill="#100100"/>
<path fill-rule="evenodd" clip-rule="evenodd" d="M37.3398 32.6175C39.0567 32.2773 40.8269 32.2283 42.6508 32.47C42.4312 32.7765 42.1362 32.924 41.7657 32.9125C40.3478 32.6214 38.8726 32.5228 37.3398 32.6175Z" fill="#100100"/>
<path fill-rule="evenodd" clip-rule="evenodd" d="M84.2507 32.0275C84.7238 31.972 85.1172 32.1195 85.4308 32.47C84.4523 32.617 83.4689 32.6662 82.4805 32.6176C83.0705 32.4208 83.6606 32.2243 84.2507 32.0275Z" fill="#100100"/>
<path fill-rule="evenodd" clip-rule="evenodd" d="M130.867 32.0277C131.654 32.2245 132.441 32.421 133.228 32.6178C132.225 32.7122 131.242 32.6139 130.277 32.3228C130.412 32.0873 130.609 31.989 130.867 32.0277Z" fill="#100100"/>
<path fill-rule="evenodd" clip-rule="evenodd" d="M178.072 32.6176C176.442 32.5229 174.868 32.6212 173.352 32.9127C173.065 32.769 172.77 32.6215 172.467 32.4701C174.389 32.2282 176.257 32.2774 178.072 32.6176Z" fill="#100100"/>
</g>
<defs>
<clipPath id="clip0_314_34">
<rect width="215.563" height="50" fill="white"/>
</clipPath>
</defs>
</svg>
