<svg width="50" height="50" viewBox="0 0 50 50" fill="none" xmlns="http://www.w3.org/2000/svg">
<path fill-rule="evenodd" clip-rule="evenodd" d="M44.534 8.04544C46.6866 8.62167 48.3784 10.3133 48.9545 12.4659C49.9958 16.3637 50 24.5008 50 24.5008C50 24.5008 50 32.638 48.9545 36.5358C48.3784 38.6884 46.6866 40.38 44.534 40.9561C40.6364 42.0016 24.9999 42.0016 24.9999 42.0016C24.9999 42.0016 9.36367 42.0016 5.46591 40.9561C3.31331 40.38 1.62167 38.6884 1.04544 36.5358C0 32.638 0 24.5008 0 24.5008C0 24.5008 0 16.3637 1.04544 12.4659C1.62167 10.3133 3.31331 8.62167 5.46591 8.04544C9.36367 7 24.9999 7 24.9999 7C24.9999 7 40.6364 7 44.534 8.04544ZM32.985 24.5015L19.9952 32.0006V17.0023L32.985 24.5015Z" fill="#100100"/>
</svg>
