<?xml version="1.0" standalone="no"?>
<!DOCTYPE svg PUBLIC "-//W3C//DTD SVG 20010904//EN"
 "http://www.w3.org/TR/2001/REC-SVG-20010904/DTD/svg10.dtd">
<svg version="1.0" xmlns="http://www.w3.org/2000/svg"
 width="1100.000000pt" height="1100.000000pt" viewBox="0 0 1100.000000 1100.000000"
 preserveAspectRatio="xMidYMid meet">
<metadata>
Created by potrace 1.14, written by Peter Selinger 2001-2017
</metadata>
<g transform="translate(0.000000,1100.000000) scale(0.100000,-0.100000)"
fill="#000000" stroke="none">
<path d="M3997 9103 c-4 -3 -7 -139 -7 -300 l0 -294 27 3 c26 3 35 20 149 293
67 160 119 293 117 298 -5 9 -277 10 -286 0z"/>
<path d="M280 6911 l0 -1751 150 0 150 0 0 498 0 499 98 6 c378 26 707 161
928 381 93 93 149 173 204 289 159 334 159 820 0 1154 -56 119 -112 197 -209
293 -186 185 -413 293 -746 357 -52 10 -166 17 -327 20 l-248 5 0 -1751z m528
1674 c411 -87 665 -381 749 -865 24 -132 24 -488 0 -620 -94 -541 -402 -845
-896 -886 l-81 -7 0 1203 0 1203 81 -7 c44 -4 111 -13 147 -21z"/>
<path d="M2180 6910 l0 -1750 255 0 c279 0 272 2 241 -58 -20 -39 -119 -326
-164 -477 -192 -633 -306 -1372 -289 -1880 9 -273 57 -604 95 -655 26 -35 81
-39 116 -8 24 21 27 32 37 153 27 334 133 660 278 851 78 105 166 174 220 174
42 0 87 -98 101 -224 13 -109 0 -160 -60 -239 -140 -185 -280 -427 -324 -559
-27 -81 -34 -174 -15 -210 13 -25 68 -48 114 -48 140 0 316 245 389 541 14 57
32 154 39 215 12 95 19 118 44 155 44 64 321 330 446 429 125 99 132 103 123
66 -14 -56 -24 -315 -16 -406 19 -210 79 -297 225 -330 95 -21 205 17 343 119
154 114 309 276 621 648 l136 163 12 -87 c26 -175 63 -250 158 -308 45 -28 56
-30 140 -30 88 0 95 2 181 44 127 63 263 201 456 461 80 107 153 207 162 223
10 15 26 27 36 27 23 0 34 15 49 70 78 270 562 885 683 868 22 -3 23 -7 21
-78 -3 -83 -10 -113 -148 -615 -103 -378 -140 -551 -150 -715 -8 -121 3 -181
43 -223 48 -51 132 -53 209 -6 86 53 297 314 489 603 l99 149 8 -89 c14 -157
47 -244 128 -329 75 -79 124 -100 239 -100 85 0 101 3 150 29 116 60 242 222
325 416 20 46 41 90 47 97 6 7 63 40 127 73 64 34 155 90 204 126 106 80 257
221 257 241 0 16 -58 43 -94 43 -17 0 -52 -25 -113 -82 -168 -155 -303 -252
-324 -231 -6 6 -2 42 8 89 13 57 18 126 18 249 0 150 -2 177 -22 227 -118 314
-495 420 -786 221 -160 -109 -267 -318 -267 -522 0 -82 21 -181 46 -219 9 -13
13 -34 10 -45 -8 -29 -180 -297 -289 -450 -101 -142 -191 -256 -274 -346 -78
-85 -93 -81 -93 26 0 151 58 434 173 843 102 361 118 430 123 518 5 76 3 91
-15 119 -46 73 -168 95 -266 49 -209 -98 -548 -515 -680 -837 -20 -49 -45 -91
-63 -107 -17 -15 -95 -115 -175 -223 -218 -296 -348 -433 -467 -494 -100 -51
-146 -40 -181 41 -44 98 -66 357 -36 412 7 12 44 40 82 63 239 139 435 351
509 549 53 142 30 242 -66 291 -89 45 -200 8 -313 -106 -131 -131 -221 -291
-306 -544 l-51 -155 -166 -200 c-292 -353 -393 -468 -547 -622 -201 -201 -338
-291 -394 -257 -24 14 -58 89 -75 165 -21 86 -21 317 -1 458 51 359 192 676
391 876 74 74 147 118 186 112 17 -2 24 -11 28 -38 8 -48 17 -60 56 -76 39
-17 69 -7 79 26 38 120 -193 222 -340 151 -66 -32 -197 -165 -264 -266 -90
-136 -192 -369 -231 -522 -6 -24 -17 -43 -24 -43 -36 0 -285 -193 -473 -368
-74 -68 -139 -122 -146 -119 -7 2 -22 36 -35 75 -38 119 -127 178 -259 170
-187 -10 -349 -184 -488 -522 -66 -160 -75 -145 -75 122 0 237 5 256 90 346
113 121 220 278 377 551 311 544 598 1149 738 1555 85 248 98 313 100 505 l1
170 238 715 c131 393 242 719 247 725 5 5 9 -485 9 -1163 l0 -1172 150 0 150
0 -1 1743 -1 1742 -133 -400 c-74 -220 -247 -744 -385 -1165 -139 -421 -256
-769 -261 -774 -5 -6 -9 483 -9 1172 l0 1182 -150 0 -150 0 0 -1248 0 -1248
-33 -16 c-51 -24 -152 -122 -230 -223 -112 -146 -284 -449 -375 -662 l-23 -53
-119 0 -120 0 0 1075 0 1075 150 0 150 0 0 25 0 25 -150 0 -150 0 0 600 0 600
300 0 300 0 0 25 0 25 -450 0 -450 0 0 -1750z m1126 -1842 c-92 -216 -245
-533 -372 -771 -194 -365 -441 -782 -488 -826 l-26 -24 0 39 c0 39 43 302 81
494 72 365 200 808 315 1088 l37 92 114 0 113 0 0 25 0 25 -100 0 c-55 0 -100
2 -100 5 0 3 24 55 53 117 118 251 271 498 378 612 l64 69 3 -386 2 -387 -74
-172z m4934 -130 c66 -40 120 -113 152 -207 47 -137 20 -493 -49 -631 l-28
-55 -80 -23 c-60 -17 -105 -23 -180 -23 -158 1 -287 47 -293 105 -7 56 94 291
150 353 26 28 18 50 -28 69 -30 12 -42 13 -65 3 -32 -13 -105 -115 -138 -192
-20 -47 -44 -60 -55 -31 -11 30 -6 160 9 219 66 257 267 443 480 444 63 1 77
-3 125 -31z m-2463 -470 c-9 -85 -76 -218 -164 -328 -73 -90 -235 -240 -259
-240 -22 0 -17 43 16 125 86 215 198 381 320 471 25 19 56 34 69 34 23 0 24
-1 18 -62z m2037 -493 c76 -32 179 -47 324 -46 167 0 158 14 85 -135 -82 -167
-194 -288 -267 -288 -67 0 -153 96 -197 219 -27 77 -39 243 -18 256 20 12 31
11 73 -6z m-4794 -1449 c0 -67 -76 -253 -141 -346 -42 -60 -69 -76 -69 -41 0
65 169 411 201 411 5 0 9 -11 9 -24z"/>
<path d="M4670 8635 l0 -25 300 0 300 0 0 -1725 0 -1725 150 0 150 0 0 1725 0
1725 300 0 300 0 0 25 0 25 -750 0 -750 0 0 -25z"/>
<path d="M6471 6923 l1 -1738 386 1158 c213 636 390 1157 394 1157 5 0 8 -527
8 -1170 l0 -1171 148 3 147 3 3 1740 c1 956 -2 1735 -6 1730 -4 -6 -13 -26
-19 -45 -29 -89 -601 -1823 -675 -2045 l-83 -250 -5 1180 -5 1180 -147 3 -148
3 1 -1738z"/>
<path d="M8055 8648 c-3 -7 -4 -794 -3 -1748 l3 -1735 148 -3 147 -3 0 1101 0
1100 325 0 325 0 0 -1100 0 -1100 150 0 150 0 0 1750 0 1751 -147 -3 -148 -3
-3 -622 -2 -623 -325 0 -325 0 0 625 0 625 -145 0 c-107 0 -147 -3 -150 -12z"/>
<path d="M9800 6910 l0 -1750 150 0 150 0 0 1725 0 1725 300 0 300 0 0 25 0
25 -450 0 -450 0 0 -1750z"/>
</g>
</svg>
